# Blender 3.3.0
# www.blender.org
mtllib body.mtl
o Body
v 0.000000 0.776718 0.323696
v 0.500000 1.697013 -0.031024
v 0.511091 0.638379 0.500931
v 0.500000 1.697013 0.500000
v 0.549999 1.697290 0.499723
v 0.559302 0.638379 0.500920
v 0.549999 0.638656 -0.031301
v 0.549999 1.697290 -0.031301
v 0.509303 0.799552 0.500781
v 0.500000 0.799552 0.323696
v 0.559302 0.799829 0.500504
v 0.549999 0.799829 -0.031301
v 0.500951 1.553031 0.500080
v 0.500000 1.553031 0.323696
v 0.550950 1.553308 0.499803
v 0.549999 1.553308 -0.031301
v 0.499589 0.799552 -0.394725
v 0.499589 0.638379 -0.394725
v 0.499589 1.697013 -0.229110
v 0.549587 0.799829 -0.229387
v 0.549587 0.638656 -0.229387
v 0.549587 1.697290 -0.229387
v 0.497790 1.553031 -0.228688
v 0.549587 1.553308 -0.229387
v 0.499084 0.638379 -0.481591
v 0.549082 0.638656 -0.481868
v 0.549082 1.697290 -0.274390
v 0.499084 1.697013 -0.274113
v 0.499084 1.553031 -0.313415
v 0.549082 1.553308 -0.313692
v 0.499853 1.727999 0.500000
v 0.499853 1.727999 -0.031024
v 0.549851 1.728276 0.499723
v 0.549851 1.728276 -0.031301
v 0.549439 1.728276 -0.229386
v 0.499441 1.727999 -0.229109
v 0.550862 0.002376 -0.229398
v 0.551274 0.002376 -0.031312
v 0.512366 0.002099 0.500920
v 0.501275 0.002099 -0.031035
v 0.559302 0.002094 0.500920
v 0.500864 0.002099 -0.229121
v 0.500359 0.002099 -0.411373
v 0.550357 0.002376 -0.411650
v 0.549207 1.728276 -0.250069
v 0.549050 1.703954 -0.274390
v 0.549086 1.725018 -0.262229
v 0.549029 1.716115 -0.271131
v 0.499052 1.703677 -0.274113
v 0.499209 1.727999 -0.249791
v 0.499030 1.715838 -0.270854
v 0.499088 1.724741 -0.261952
v 0.499084 0.726376 -0.481591
v 0.499084 0.870971 -0.465650
v 0.499084 0.759816 -0.480377
v 0.499084 0.799038 -0.476922
v 0.499084 0.838070 -0.471750
v 0.549082 0.871248 -0.465927
v 0.549082 0.726653 -0.481868
v 0.549228 0.799829 -0.408692
v 0.549082 0.838347 -0.472027
v 0.549082 0.799315 -0.477199
v 0.549082 0.760093 -0.480654
v 0.499084 0.638379 -0.481591
v 0.500359 0.002099 -0.411373
v 0.549082 0.638656 -0.481868
v 0.550357 0.002376 -0.411650
v 0.549082 1.697290 -0.274390
v 0.499084 1.697013 -0.274113
v 0.499084 1.553031 -0.313415
v 0.549082 1.553308 -0.313692
v 0.499853 1.727999 0.500000
v 0.499853 1.727999 -0.031024
v 0.549851 1.728276 0.499723
v 0.549851 1.728276 -0.031301
v 0.549439 1.728276 -0.229386
v 0.499441 1.727999 -0.229109
v 0.549086 1.725018 -0.262229
v 0.549207 1.728276 -0.250069
v 0.499209 1.727999 -0.249791
v 0.499088 1.724741 -0.261952
v 0.549029 1.716115 -0.271131
v 0.499030 1.715838 -0.270854
v 0.549050 1.703954 -0.274390
v 0.499052 1.703677 -0.274113
v 0.499084 0.726376 -0.481591
v 0.499084 0.759816 -0.480377
v 0.499084 0.799038 -0.476922
v 0.499084 0.838070 -0.471750
v 0.499084 0.870971 -0.465650
v 0.549082 0.871248 -0.465927
v 0.549082 0.838347 -0.472027
v 0.549082 0.799315 -0.477199
v 0.549082 0.760093 -0.480654
v 0.549082 0.726653 -0.481868
v 0.000000 0.776718 0.323696
v -0.500000 1.697013 -0.031024
v -0.511091 0.638379 0.500931
v -0.500000 1.697013 0.500000
v -0.549999 1.697290 0.499723
v -0.559302 0.638379 0.500920
v -0.549999 0.638656 -0.031301
v -0.549999 1.697290 -0.031301
v -0.509303 0.799552 0.500781
v -0.500000 0.799552 0.323696
v -0.559302 0.799829 0.500504
v -0.549999 0.799829 -0.031301
v -0.500951 1.553031 0.500080
v -0.500000 1.553031 0.323696
v -0.550950 1.553308 0.499803
v -0.549999 1.553308 -0.031301
v -0.499589 0.799552 -0.394725
v -0.499589 0.638379 -0.394725
v -0.499589 1.697013 -0.229110
v -0.549587 0.799829 -0.229387
v -0.549587 0.638656 -0.229387
v -0.549587 1.697290 -0.229387
v -0.497790 1.553031 -0.228688
v -0.549587 1.553308 -0.229387
v -0.499084 0.638379 -0.481591
v -0.549082 0.638656 -0.481868
v -0.549082 1.697290 -0.274390
v -0.499084 1.697013 -0.274113
v -0.499084 1.553031 -0.313415
v -0.549082 1.553308 -0.313692
v -0.499853 1.727999 0.500000
v -0.499853 1.727999 -0.031024
v -0.549851 1.728276 0.499723
v -0.549851 1.728276 -0.031301
v -0.549439 1.728276 -0.229386
v -0.499441 1.727999 -0.229109
v -0.550862 0.002376 -0.229398
v -0.551274 0.002376 -0.031312
v -0.512366 0.002099 0.500920
v -0.501275 0.002099 -0.031035
v -0.559302 0.002094 0.500920
v -0.500864 0.002099 -0.229121
v -0.500359 0.002099 -0.411373
v -0.550357 0.002376 -0.411650
v -0.549207 1.728276 -0.250069
v -0.549050 1.703954 -0.274390
v -0.549086 1.725018 -0.262229
v -0.549029 1.716115 -0.271131
v -0.499052 1.703677 -0.274113
v -0.499209 1.727999 -0.249791
v -0.499030 1.715838 -0.270854
v -0.499088 1.724741 -0.261952
v -0.499084 0.726376 -0.481591
v -0.499084 0.870971 -0.465650
v -0.499084 0.759816 -0.480377
v -0.499084 0.799038 -0.476922
v -0.499084 0.838070 -0.471750
v -0.549082 0.871248 -0.465927
v -0.549082 0.726653 -0.481868
v -0.549228 0.799829 -0.408692
v -0.549082 0.838347 -0.472027
v -0.549082 0.799315 -0.477199
v -0.549082 0.760093 -0.480654
v -0.499084 0.638379 -0.481591
v -0.500359 0.002099 -0.411373
v -0.549082 0.638656 -0.481868
v -0.550357 0.002376 -0.411650
v -0.549082 1.697290 -0.274390
v -0.499084 1.697013 -0.274113
v -0.499084 1.553031 -0.313415
v -0.549082 1.553308 -0.313692
v -0.499853 1.727999 0.500000
v -0.499853 1.727999 -0.031024
v -0.549851 1.728276 0.499723
v -0.549851 1.728276 -0.031301
v -0.549439 1.728276 -0.229386
v -0.499441 1.727999 -0.229109
v -0.549086 1.725018 -0.262229
v -0.549207 1.728276 -0.250069
v -0.499209 1.727999 -0.249791
v -0.499088 1.724741 -0.261952
v -0.549029 1.716115 -0.271131
v -0.499030 1.715838 -0.270854
v -0.549050 1.703954 -0.274390
v -0.499052 1.703677 -0.274113
v -0.499084 0.726376 -0.481591
v -0.499084 0.759816 -0.480377
v -0.499084 0.799038 -0.476922
v -0.499084 0.838070 -0.471750
v -0.499084 0.870971 -0.465650
v -0.549082 0.871248 -0.465927
v -0.549082 0.838347 -0.472027
v -0.549082 0.799315 -0.477199
v -0.549082 0.760093 -0.480654
v -0.549082 0.726653 -0.481868
vn -0.9999 -0.0048 0.0112
vn -1.0000 -0.0048 0.0021
vn -1.0000 -0.0014 0.0058
vn 0.0002 -0.0000 1.0000
vn 1.0000 0.0066 -0.0018
vn 0.0055 0.0006 1.0000
vn 0.0055 0.0010 1.0000
vn 0.9998 -0.0000 -0.0175
vn -1.0000 -0.0000 0.0040
vn 1.0000 -0.0000 -0.0021
vn 0.9998 0.0111 -0.0175
vn 1.0000 0.0013 -0.0060
vn 1.0000 -0.0000 -0.0020
vn 1.0000 0.0018 -0.0020
vn 1.0000 0.0020 -0.0021
vn -1.0000 -0.0032 0.0039
vn -1.0000 -0.0000 0.0058
vn -0.9999 0.0125 0.0112
vn -1.0000 -0.0048 -0.0000
vn 0.9999 -0.0000 -0.0112
vn 0.9999 0.0048 -0.0112
vn 1.0000 0.0048 -0.0021
vn 0.0055 -0.0000 1.0000
vn 1.0000 0.0048 -0.0000
vn 0.0055 -1.0000 -0.0000
vn 0.0055 -1.0000 -0.0001
vn 0.9998 0.0020 -0.0175
vn -1.0000 -0.0002 0.0060
vn -1.0000 -0.0005 0.0061
vn -1.0000 -0.0008 0.0061
vn -1.0000 -0.0011 0.0060
vn 1.0000 0.0004 -0.0021
vn 1.0000 0.0003 -0.0021
vn 1.0000 0.0002 -0.0021
vn 1.0000 0.0001 -0.0021
vn -0.0049 -0.1097 -0.9940
vn -0.0052 -0.0551 -0.9985
vn -0.0052 -0.0548 -0.9985
vn -0.0062 0.1330 -0.9911
vn -0.0067 0.2407 -0.9706
vn -0.0067 0.2406 -0.9706
vn -0.0065 0.2001 -0.9797
vn -0.0065 0.2001 -0.9798
vn -0.0055 1.0000 -0.0000
vn -0.0076 0.8665 -0.4992
vn -0.0062 0.9914 -0.1309
vn -0.0062 0.9915 -0.1300
vn -0.0076 0.5005 -0.8657
vn -0.0076 0.8656 -0.5007
vn -0.0062 0.1306 -0.9914
vn -0.0076 0.4995 -0.8663
vn -0.0059 0.0619 -0.9981
vn -0.0056 0.0182 -0.9998
vn -0.0056 0.0181 -0.9998
vn -0.0061 0.1095 -0.9940
vn -0.0059 0.0621 -0.9981
vn -0.0063 0.1568 -0.9876
vn -0.0061 0.1096 -0.9940
vn -0.0063 0.1569 -0.9876
vn -0.0062 0.1326 -0.9911
vn -0.0062 0.1304 -0.9914
vn 0.9999 -0.0048 0.0112
vn 1.0000 -0.0048 0.0021
vn 1.0000 -0.0014 0.0058
vn -0.0002 -0.0000 1.0000
vn -1.0000 0.0066 -0.0018
vn -0.0055 0.0006 1.0000
vn -0.0002 0.0026 1.0000
vn -0.9998 -0.0000 -0.0175
vn 1.0000 -0.0000 0.0040
vn -1.0000 -0.0000 -0.0021
vn -0.0055 0.0010 1.0000
vn -0.9998 0.0111 -0.0175
vn -1.0000 0.0013 -0.0060
vn -1.0000 -0.0000 -0.0020
vn -1.0000 0.0020 -0.0028
vn -1.0000 0.0020 -0.0021
vn 0.9999 0.0034 -0.0153
vn 1.0000 -0.0000 0.0058
vn 0.9999 0.0125 0.0112
vn 1.0000 -0.0048 -0.0000
vn -1.0000 0.0016 -0.0060
vn -0.9999 0.0048 -0.0112
vn -1.0000 0.0048 -0.0021
vn -0.0055 -0.0000 1.0000
vn -1.0000 0.0048 -0.0000
vn -0.0055 -1.0000 -0.0000
vn -0.0055 -1.0000 -0.0001
vn -0.9999 -0.0000 -0.0151
vn 1.0000 -0.0002 0.0060
vn 1.0000 -0.0005 0.0061
vn 1.0000 -0.0008 0.0061
vn 1.0000 -0.0011 0.0060
vn -1.0000 0.0004 -0.0021
vn -1.0000 0.0003 -0.0021
vn -1.0000 0.0002 -0.0021
vn -1.0000 0.0001 -0.0021
vn 0.0052 -0.0551 -0.9985
vn 0.0049 -0.1097 -0.9940
vn 0.0052 -0.0548 -0.9985
vn 0.0062 0.1330 -0.9911
vn 0.0067 0.2407 -0.9706
vn 0.0062 0.1326 -0.9911
vn 0.0067 0.2406 -0.9706
vn 0.0065 0.2001 -0.9797
vn 0.0055 1.0000 -0.0000
vn 0.0062 0.9914 -0.1309
vn 0.0076 0.8665 -0.4992
vn 0.0062 0.9915 -0.1300
vn 0.0076 0.8656 -0.5007
vn 0.0076 0.5005 -0.8657
vn 0.0076 0.4995 -0.8663
vn 0.0062 0.1306 -0.9914
vn 0.0056 0.0182 -0.9998
vn 0.0059 0.0619 -0.9981
vn 0.0056 0.0181 -0.9998
vn 0.0059 0.0621 -0.9981
vn 0.0061 0.1095 -0.9940
vn 0.0061 0.1096 -0.9940
vn 0.0063 0.1568 -0.9876
vn 0.0063 0.1569 -0.9876
vn 0.0065 0.2001 -0.9798
vn 0.0062 0.1304 -0.9914
vn -0.0000 1.0000 -0.0000
vn -0.0000 -0.0000 -1.0000
vn -0.0000 -0.2519 -0.9678
vn -0.0000 -1.0000 -0.0000
vn -0.0000 -0.0029 -1.0000
vn -0.0000 0.0006 1.0000
vn -0.0000 0.0009 1.0000
vn -0.0000 -0.0000 1.0000
vn -1.0000 -0.0013 0.0028
vn 1.0000 -0.0000 -0.0000
vn 0.0002 0.0026 1.0000
vn -1.0000 -0.0025 0.0006
vn 1.0000 -0.0000 -0.0018
vn 1.0000 0.0004 -0.0020
vn 1.0000 0.0020 -0.0028
vn -0.9999 0.0034 -0.0153
vn -0.9999 0.0042 -0.0153
vn 1.0000 0.0016 -0.0060
vn -0.0001 -1.0000 -0.0005
vn 0.9999 -0.0000 -0.0151
vn 1.0000 -0.0013 0.0028
vn -1.0000 -0.0000 -0.0000
vn 1.0000 -0.0025 0.0006
vn -1.0000 -0.0000 -0.0018
vn -1.0000 0.0004 -0.0020
vn -1.0000 0.0018 -0.0020
vn 1.0000 -0.0032 0.0039
vn 0.9999 0.0042 -0.0153
vn -0.9999 -0.0000 -0.0112
vn 0.0001 -1.0000 -0.0005
vn -0.9998 0.0020 -0.0175
vt 0.615313 0.328512
vt 0.234412 0.146955
vt 0.118594 0.008533
vt 0.412751 0.085244
vt 0.657398 0.087119
vt 0.651465 0.144483
vt 0.104830 0.146955
vt 0.237572 0.009780
vt 0.657462 0.078665
vt 0.695480 0.383353
vt 0.412751 0.077092
vt 0.695217 0.152683
vt 0.811157 0.152744
vt 0.811157 0.383353
vt 0.449998 0.085546
vt 0.136708 0.008734
vt 0.139400 0.649640
vt 0.328443 0.144483
vt 0.822006 0.980864
vt 0.695308 0.187853
vt 0.450062 0.077092
vt 0.811157 0.187854
vt 0.624124 0.086958
vt 0.221390 0.009673
vt 0.589565 0.195780
vt 0.278845 0.614687
vt 0.139400 0.749051
vt 0.624188 0.078504
vt 0.695463 0.351989
vt 0.811157 0.351989
vt 0.659707 0.980771
vt 0.279533 0.393455
vt 0.007167 0.878548
vt 0.007167 0.781715
vt 0.980172 0.986264
vt 0.223677 0.382482
vt 0.282750 0.147023
vt 0.601828 0.397159
vt 0.004946 0.986999
vt 0.854307 0.187854
vt 0.854307 0.152744
vt 0.854307 0.383353
vt 0.006032 0.900369
vt 0.551958 0.387210
vt 0.278582 0.548782
vt 0.854307 0.351989
vt 0.217763 0.412586
vt 0.909307 0.152744
vt 0.864110 0.383353
vt 0.598764 0.412755
vt 0.546190 0.416573
vt 0.872672 0.351989
vt 0.662204 0.146592
vt 0.664558 0.087144
vt 0.626052 0.330621
vt 0.664622 0.078690
vt 0.695480 0.390103
vt 0.811157 0.390103
vt 0.854307 0.390103
vt 0.612566 0.399269
vt 0.854309 0.019113
vt 0.106394 0.765015
vt 0.079623 0.765071
vt 0.811159 0.019113
vt 0.270986 0.085028
vt 0.007691 0.759812
vt 0.049650 0.008390
vt 0.018837 0.749704
vt 0.079586 0.758313
vt 0.078623 0.748457
vt 0.270985 0.077092
vt 0.007691 0.766156
vt 0.695217 0.019051
vt 0.022358 0.283329
vt 0.106357 0.758258
vt 0.841261 0.986560
vt 0.100885 0.748411
vt 0.009951 0.346489
vt 0.130988 0.758189
vt 0.894010 0.019113
vt 0.131026 0.764947
vt 0.858812 0.390103
vt 0.864110 0.384805
vt 0.861461 0.389394
vt 0.863401 0.387454
vt 0.601073 0.413209
vt 0.611158 0.406436
vt 0.605510 0.412908
vt 0.609201 0.410429
vt 0.248259 0.418577
vt 0.299454 0.422896
vt 0.259930 0.420433
vt 0.273758 0.421905
vt 0.287637 0.422771
vt 0.905834 0.203411
vt 0.909307 0.171913
vt 0.893366 0.187854
vt 0.907163 0.196244
vt 0.908290 0.187742
vt 0.909042 0.179198
vt 0.918997 0.479001
vt 0.919348 0.737080
vt 0.940288 0.478908
vt 0.940639 0.736987
vt 0.940628 0.022566
vt 0.919337 0.022659
vt 0.919290 0.085095
vt 0.940581 0.085002
vt 0.661398 0.012603
vt 0.404518 0.012792
vt 0.661294 0.030321
vt 0.404415 0.030510
vt 0.308592 0.030434
vt 0.308695 0.012717
vt 0.940639 0.010389
vt 0.292630 0.030321
vt 0.298587 0.030359
vt 0.298690 0.012642
vt 0.292733 0.012603
vt 0.919348 0.010482
vt 0.940611 0.014465
vt 0.919320 0.014558
vt 0.940616 0.019737
vt 0.919325 0.019830
vt 0.919025 0.441644
vt 0.919035 0.427408
vt 0.919048 0.410642
vt 0.919060 0.393899
vt 0.919071 0.379728
vt 0.940362 0.379635
vt 0.940351 0.393806
vt 0.940339 0.410549
vt 0.940326 0.427315
vt 0.940316 0.441552
vt 0.616051 0.548947
vt 0.234412 0.309748
vt 0.412751 0.099232
vt 0.118594 0.123414
vt 0.652064 0.732265
vt 0.657398 0.097357
vt 0.104830 0.309748
vt 0.237572 0.122168
vt 0.657462 0.105811
vt 0.696084 0.411262
vt 0.412751 0.107384
vt 0.695849 0.616624
vt 0.799069 0.616570
vt 0.799069 0.411262
vt 0.449998 0.098930
vt 0.136708 0.123213
vt 0.330290 0.732265
vt 0.822006 0.754700
vt 0.271744 0.649640
vt 0.450062 0.107384
vt 0.695930 0.585313
vt 0.799069 0.585312
vt 0.624124 0.097518
vt 0.221390 0.122275
vt 0.590403 0.681167
vt 0.271744 0.749051
vt 0.159535 0.614687
vt 0.624188 0.105972
vt 0.696068 0.439186
vt 0.799069 0.439186
vt 0.281569 0.484256
vt 0.659707 0.754793
vt 0.609328 0.878548
vt 0.225929 0.495186
vt 0.609328 0.781715
vt 0.980172 0.754385
vt 0.602618 0.480565
vt 0.608118 0.986999
vt 0.282750 0.309681
vt 0.837485 0.585312
vt 0.837485 0.616570
vt 0.837485 0.411262
vt 0.552942 0.490476
vt 0.159798 0.548782
vt 0.607032 0.900369
vt 0.837485 0.439186
vt 0.220039 0.465199
vt 0.886450 0.616570
vt 0.846213 0.411262
vt 0.599566 0.465030
vt 0.547196 0.461226
vt 0.853834 0.439185
vt 0.662761 0.730164
vt 0.664558 0.097332
vt 0.626749 0.546846
vt 0.664622 0.105786
vt 0.696083 0.405252
vt 0.799069 0.405253
vt 0.837485 0.405252
vt 0.613315 0.478464
vt 0.837486 0.735539
vt 0.106394 0.618577
vt 0.079623 0.618521
vt 0.799070 0.735539
vt 0.270986 0.099448
vt 0.007691 0.623780
vt 0.049650 0.123558
vt 0.018837 0.634536
vt 0.079586 0.625279
vt 0.078623 0.635783
vt 0.695849 0.735595
vt 0.270985 0.107384
vt 0.007691 0.617436
vt 0.025389 0.593956
vt 0.106357 0.625334
vt 0.841261 0.754089
vt 0.100885 0.635829
vt 0.013029 0.531040
vt 0.130988 0.625403
vt 0.872832 0.735539
vt 0.131026 0.618645
vt 0.841496 0.405252
vt 0.846213 0.409970
vt 0.843854 0.405885
vt 0.845581 0.407611
vt 0.601867 0.464578
vt 0.611913 0.471325
vt 0.606286 0.464878
vt 0.609963 0.467348
vt 0.250416 0.459231
vt 0.301414 0.454928
vt 0.262042 0.457382
vt 0.275817 0.455915
vt 0.289642 0.455053
vt 0.883358 0.571462
vt 0.886450 0.599504
vt 0.872259 0.585312
vt 0.884541 0.577842
vt 0.885545 0.585412
vt 0.886215 0.593019
vt 0.960904 0.269868
vt 0.961254 0.012782
vt 0.982114 0.269961
vt 0.982463 0.012874
vt 0.982452 0.724549
vt 0.961243 0.724456
vt 0.961197 0.662260
vt 0.982406 0.662353
vt 0.662393 0.061080
vt 0.405513 0.060891
vt 0.662289 0.043362
vt 0.405410 0.043173
vt 0.309587 0.043249
vt 0.309691 0.060966
vt 0.982463 0.736679
vt 0.293625 0.043362
vt 0.299582 0.043323
vt 0.299686 0.061041
vt 0.293728 0.061080
vt 0.961254 0.736587
vt 0.982436 0.732618
vt 0.961226 0.732526
vt 0.982441 0.727367
vt 0.961232 0.727275
vt 0.960932 0.307082
vt 0.960943 0.321263
vt 0.960955 0.337965
vt 0.960968 0.354644
vt 0.960978 0.368760
vt 0.982187 0.368852
vt 0.982177 0.354736
vt 0.982165 0.338057
vt 0.982152 0.321355
vt 0.982141 0.307174
s 0
usemtl Body
f 19/38/1 36/60/1 50/87/1
f 32/55/2 19/38/2 2/1/2
f 43/78/3 18/36/3 25/47/3
f 39/65/4 6/11/4 3/4/4
f 16/30/5 5/10/5 15/29/5
f 13/23/6 5/9/6 4/5/6
f 3/4/7 11/21/7 9/15/7
f 7/13/8 11/20/8 6/12/8
f 23/44/9 10/18/9 14/25/9
f 21/41/10 12/22/10 7/13/10
f 9/15/7 15/28/7 13/23/7
f 12/22/11 15/29/11 11/20/11
f 24/46/10 8/14/10 16/30/10
f 58/95/12 30/52/12 24/46/12
f 26/48/13 59/96/13 60/97/13
f 21/41/14 44/80/14 26/48/14
f 38/64/15 21/41/15 7/13/15
f 20/40/10 16/30/10 12/22/10
f 23/44/16 54/91/16 17/32/16
f 53/90/17 18/36/17 17/32/17
f 28/50/18 23/44/18 19/38/18
f 4/6/19 32/55/19 2/1/19
f 24/46/20 27/49/20 22/42/20
f 45/82/21 35/59/21 22/42/21
f 22/42/22 34/58/22 8/14/22
f 5/9/23 31/54/23 4/5/23
f 34/58/24 5/10/24 8/14/24
f 42/75/25 38/63/25 40/69/25
f 38/63/26 39/66/26 40/69/26
f 43/79/25 37/62/25 42/75/25
f 6/12/27 38/64/27 7/13/27
f 53/90/28 17/32/28 55/92/28
f 55/92/29 17/32/29 56/93/29
f 56/93/30 17/32/30 57/94/30
f 57/94/31 17/32/31 54/91/31
f 58/95/32 60/97/32 61/98/32
f 61/98/33 60/97/33 62/99/33
f 62/99/34 60/97/34 63/100/34
f 63/100/35 60/97/35 59/96/35
s 1
f 67/104/36 64/101/37 66/103/38
f 69/106/39 71/108/40 70/107/41
f 70/107/41 91/130/42 90/129/43
f 74/111/44 73/110/44 72/109/44
f 75/112/44 77/114/44 73/110/44
f 78/116/45 80/118/46 79/117/47
f 82/121/48 81/120/49 78/115/45
f 84/123/50 83/122/51 82/121/48
f 79/117/47 77/114/44 76/113/44
f 87/126/52 95/134/53 86/125/54
f 88/127/55 94/133/56 87/126/52
f 89/128/57 93/132/58 88/127/55
f 90/129/43 92/131/59 89/128/57
f 86/125/54 66/103/38 64/101/37
f 68/105/60 85/124/61 84/123/50
s 0
f 19/38/1 50/87/1 52/89/1
f 19/38/1 52/89/1 51/88/1
f 19/38/1 51/88/1 49/86/1
f 28/50/1 19/38/1 49/86/1
f 27/49/21 46/83/21 22/42/21
f 46/83/21 48/85/21 22/42/21
f 48/85/21 47/84/21 22/42/21
f 47/84/21 45/82/21 22/42/21
f 114/171/62 145/221/62 131/194/62
f 114/171/63 127/189/63 97/135/63
f 113/168/64 138/212/64 120/181/64
f 101/145/65 134/199/65 98/137/65
f 100/144/66 111/164/66 110/163/66
f 108/157/67 100/143/67 110/162/67
f 98/137/68 106/154/68 101/145/68
f 106/155/69 102/147/69 101/146/69
f 105/151/70 118/177/70 109/159/70
f 107/156/71 116/175/71 102/147/71
f 104/149/72 110/162/72 106/154/72
f 110/163/73 107/156/73 106/155/73
f 103/148/71 119/180/71 111/164/71
f 119/180/74 125/186/74 153/229/74
f 121/182/75 155/231/75 154/230/75
f 116/175/76 139/214/76 132/195/76
f 116/175/77 133/198/77 102/147/77
f 111/164/71 115/174/71 107/156/71
f 118/177/78 149/225/78 124/185/78
f 113/168/79 148/224/79 112/165/79
f 118/177/80 123/184/80 114/171/80
f 99/139/81 127/189/81 126/187/81
f 119/180/82 122/183/82 125/186/82
f 140/216/83 117/176/83 130/193/83
f 117/176/84 129/192/84 130/193/84
f 100/143/85 126/188/85 128/190/85
f 100/144/86 129/192/86 103/148/86
f 133/197/87 137/209/87 135/203/87
f 134/200/88 133/197/88 135/203/88
f 132/196/87 138/213/87 137/209/87
f 101/146/89 133/198/89 136/205/89
f 148/224/90 150/226/90 112/165/90
f 150/226/91 151/227/91 112/165/91
f 151/227/92 152/228/92 112/165/92
f 152/228/93 149/225/93 112/165/93
f 153/229/94 156/232/94 155/231/94
f 156/232/95 157/233/95 155/231/95
f 157/233/96 158/234/96 155/231/96
f 158/234/97 154/230/97 155/231/97
s 1
f 159/235/98 162/238/99 161/237/100
f 164/240/101 166/242/102 163/239/103
f 165/241/104 186/264/105 166/242/102
f 168/244/106 169/245/106 167/243/106
f 170/246/106 172/248/106 171/247/106
f 175/252/107 173/250/108 174/251/109
f 176/254/110 177/255/111 173/249/108
f 178/256/112 179/257/113 177/255/111
f 172/248/106 174/251/109 171/247/106
f 190/268/114 182/260/115 181/259/116
f 189/267/117 183/261/118 182/260/115
f 188/266/119 184/262/120 183/261/118
f 187/265/121 185/263/122 184/262/120
f 181/259/116 161/237/100 190/268/114
f 163/239/103 180/258/123 164/240/101
s 0
f 114/171/62 147/223/62 145/221/62
f 114/171/62 146/222/62 147/223/62
f 114/171/62 144/220/62 146/222/62
f 123/184/62 144/220/62 114/171/62
f 122/183/83 117/176/83 141/217/83
f 141/217/83 117/176/83 143/219/83
f 143/219/83 117/176/83 142/218/83
f 142/218/83 117/176/83 140/216/83
f 112/166/124 10/19/124 17/31/124
f 113/169/125 17/33/125 18/34/125
f 42/76/126 113/170/126 18/35/126
f 105/153/125 14/27/125 10/17/125
f 109/161/127 23/45/127 14/26/127
f 118/179/128 19/39/128 23/43/128
f 114/173/124 2/2/124 19/37/124
f 97/136/124 4/7/124 2/2/124
f 4/8/129 108/158/129 13/24/129
f 13/24/130 104/150/130 9/16/130
f 9/16/130 98/138/130 3/3/130
f 98/138/131 39/67/131 3/3/131
f 39/68/127 135/204/127 40/70/127
f 135/204/127 42/77/127 40/70/127
f 32/55/2 36/60/2 19/38/2
f 43/78/132 42/74/132 18/36/132
f 39/65/131 41/71/131 6/11/131
f 16/30/133 8/14/133 5/10/133
f 13/23/6 15/28/6 5/9/6
f 3/4/134 6/11/134 11/21/134
f 7/13/8 12/22/8 11/20/8
f 23/44/135 17/32/135 10/18/135
f 21/41/10 20/40/10 12/22/10
f 9/15/7 11/21/7 15/28/7
f 12/22/136 16/30/136 15/29/136
f 24/46/10 22/42/10 8/14/10
f 24/46/10 20/40/10 58/95/10
f 20/40/137 60/97/137 58/95/137
f 20/40/13 21/41/13 60/97/13
f 21/41/13 26/48/13 60/97/13
f 21/41/138 37/61/138 44/80/138
f 38/64/15 37/61/15 21/41/15
f 20/40/10 24/46/10 16/30/10
f 23/44/139 29/51/139 54/91/139
f 53/90/17 25/47/17 18/36/17
f 28/50/140 29/51/140 23/44/140
f 4/6/19 31/53/19 32/55/19
f 24/46/141 30/52/141 27/49/141
f 22/42/22 35/59/22 34/58/22
f 5/9/23 33/56/23 31/54/23
f 34/58/24 33/57/24 5/10/24
f 42/75/25 37/62/25 38/63/25
f 38/63/142 41/72/142 39/66/142
f 43/79/25 44/81/25 37/62/25
f 6/12/143 41/73/143 38/64/143
s 1
f 67/104/36 65/102/36 64/101/37
f 69/106/39 68/105/60 71/108/40
f 70/107/41 71/108/40 91/130/42
f 74/111/44 75/112/44 73/110/44
f 75/112/44 76/113/44 77/114/44
f 78/116/45 81/119/49 80/118/46
f 82/121/48 83/122/51 81/120/49
f 84/123/50 85/124/61 83/122/51
f 79/117/47 80/118/46 77/114/44
f 87/126/52 94/133/56 95/134/53
f 88/127/55 93/132/58 94/133/56
f 89/128/57 92/131/59 93/132/58
f 90/129/43 91/130/42 92/131/59
f 86/125/54 95/134/53 66/103/38
f 68/105/60 69/106/39 85/124/61
s 0
f 114/171/63 131/194/63 127/189/63
f 113/168/144 137/208/144 138/212/144
f 101/145/131 136/206/131 134/199/131
f 100/144/145 103/148/145 111/164/145
f 108/157/67 99/140/67 100/143/67
f 98/137/72 104/149/72 106/154/72
f 106/155/69 107/156/69 102/147/69
f 105/151/146 112/165/146 118/177/146
f 107/156/71 115/174/71 116/175/71
f 104/149/72 108/157/72 110/162/72
f 110/163/147 111/164/147 107/156/147
f 103/148/71 117/176/71 119/180/71
f 155/231/148 115/174/148 153/229/148
f 115/174/71 119/180/71 153/229/71
f 121/182/75 116/175/75 155/231/75
f 116/175/75 115/174/75 155/231/75
f 116/175/149 121/182/149 139/214/149
f 116/175/77 132/195/77 133/198/77
f 111/164/71 119/180/71 115/174/71
f 118/177/150 112/165/150 149/225/150
f 113/168/79 120/181/79 148/224/79
f 118/177/151 124/185/151 123/184/151
f 99/139/81 97/135/81 127/189/81
f 119/180/152 117/176/152 122/183/152
f 117/176/84 103/148/84 129/192/84
f 100/143/85 99/140/85 126/188/85
f 100/144/86 128/191/86 129/192/86
f 133/197/87 132/196/87 137/209/87
f 134/200/153 136/207/153 133/197/153
f 132/196/87 139/215/87 138/213/87
f 101/146/154 102/147/154 133/198/154
s 1
f 159/235/98 160/236/99 162/238/99
f 164/240/101 165/241/104 166/242/102
f 165/241/104 185/263/122 186/264/105
f 168/244/106 170/246/106 169/245/106
f 170/246/106 168/244/106 172/248/106
f 175/252/107 176/253/110 173/250/108
f 176/254/110 178/256/112 177/255/111
f 178/256/112 180/258/123 179/257/113
f 172/248/106 175/252/107 174/251/109
f 190/268/114 189/267/117 182/260/115
f 189/267/117 188/266/119 183/261/118
f 188/266/119 187/265/121 184/262/120
f 187/265/121 186/264/105 185/263/122
f 181/259/116 159/235/98 161/237/100
f 163/239/103 179/257/113 180/258/123
s 0
f 112/166/124 105/152/124 10/19/124
f 113/169/125 112/167/125 17/33/125
f 42/76/126 137/210/126 113/170/126
f 105/153/125 109/160/125 14/27/125
f 109/161/127 118/178/127 23/45/127
f 118/179/128 114/172/128 19/39/128
f 114/173/124 97/136/124 2/2/124
f 97/136/124 99/141/124 4/7/124
f 4/8/129 99/142/129 108/158/129
f 13/24/130 108/158/130 104/150/130
f 9/16/130 104/150/130 98/138/130
f 98/138/131 134/201/131 39/67/131
f 39/68/127 134/202/127 135/204/127
f 135/204/127 137/211/127 42/77/127
